<svg xmlns="http://www.w3.org/2000/svg" viewBox="0 0 238.22 241.89"><defs><style>.cls-1{fill:#00a99d;}.cls-2{fill:#27bfd8;}.cls-3{fill:#27a2d8;}.cls-4{fill:#f9f9f9;}.cls-5{fill:#266568;}</style></defs><g id="圖層_2" data-name="圖層 2"><g id="圖層_1-2" data-name="圖層 1"><path class="cls-1" d="M38.51,228.36c-1.88,2-4.84,3-9,3q-8.58,0-8.59-10.66a61.66,61.66,0,0,1,1.58-12.09,87.6,87.6,0,0,1,3.31-12c.64-1.77,1.38-2.71,2.22-2.71a1.27,1.27,0,0,1,1.43,1.43,26.49,26.49,0,0,1-1,3.55c-3,9.48-4.45,16.74-4.45,21.67,0,2.77.4,4.69,1.24,5.83S27.5,228,29.62,228a14.06,14.06,0,0,0,6.71-1.88,1.49,1.49,0,0,1,1.53-1.23,1.29,1.29,0,0,1,1.48,1.43A2.82,2.82,0,0,1,38.51,228.36Z"/><path class="cls-1" d="M63.28,224.36c-.15.4-.34,1-.64,1.78a8.08,8.08,0,0,1-2.77,3.6,6.48,6.48,0,0,1-3.94,1.68,5.81,5.81,0,0,1-5-2.76,9.32,9.32,0,0,1-1.83-5.78,13.38,13.38,0,0,1,1.49-6,9.53,9.53,0,0,1,4-4.49A5.89,5.89,0,0,0,56.52,211a2.86,2.86,0,0,1,.69-.1,6.49,6.49,0,0,1,1.08.29,8.73,8.73,0,0,1,4.15,3.31A9.22,9.22,0,0,1,64,219.62,13,13,0,0,1,63.28,224.36Zm-4.1-8.78a3.82,3.82,0,0,1-2-.5,4.86,4.86,0,0,0-4.05,2.67,10.25,10.25,0,0,0-1.23,5.13A6,6,0,0,0,53,226.63a3.27,3.27,0,0,0,2.87,1.58c1.28,0,2.46-.93,3.65-2.81a9.44,9.44,0,0,0,1.63-5C61.16,218.05,60.47,216.47,59.18,215.58Z"/><path class="cls-1" d="M94.18,215.13a59.27,59.27,0,0,0-1.78,9.73,17.74,17.74,0,0,0-.2,2.22,12,12,0,0,0,.15,1.48c.1.79.2,1.23.2,1.33,0,1.29-.64,2-1.83,2a1.94,1.94,0,0,1-1.13-.4,1.19,1.19,0,0,1-.6-1,1.71,1.71,0,0,1,.35-1,51.38,51.38,0,0,1,.89-8q-8.15,9.63-11.85,9.63a3.74,3.74,0,0,1-2.61-.89,2.93,2.93,0,0,1-1-2.37,36.55,36.55,0,0,1,1-6.17,45.13,45.13,0,0,0,1-7.11V214a2.07,2.07,0,0,1,0-.5,1.81,1.81,0,0,1,.45-1.13,1.35,1.35,0,0,1,1-.54c.79,0,1.23.88,1.23,2.66a91.52,91.52,0,0,1-1.43,9.63,19.68,19.68,0,0,0-.35,2.51c0,.7.25,1,.74,1,1.93,0,4.4-1.73,7.36-5.28A67.33,67.33,0,0,0,92.15,213c.35-.59.7-.89,1.09-.89.84,0,1.28.5,1.28,1.38A4.71,4.71,0,0,1,94.18,215.13Z"/><path class="cls-1" d="M115.94,213.65a7.47,7.47,0,0,1-1.33-.1c-.59-.05-1-.1-1.33-.1-1.68,0-2.47.75-2.47,2.18a10.13,10.13,0,0,0,.84,2.91c.49,1.18.94,2.37,1.38,3.55a23.38,23.38,0,0,1,1.58,6.42,4,4,0,0,1-2.07,3.65,9.64,9.64,0,0,1-4.59,1c-3.07,0-4.6-.59-4.6-1.68s.4-1.87,1.24-1.87c.2,0,.69.05,1.58.14a11.25,11.25,0,0,0,1.92.2c2.37,0,3.56-.74,3.56-2.32,0-.69-.74-3.11-2.17-7.16-.35-.88-.7-1.82-1.09-2.81a7.63,7.63,0,0,1-.49-2.71c0-2.18,1.08-3.66,3.35-4.5.3-.79,1.19-1.18,2.57-1.18a9.17,9.17,0,0,1,2.17.39c.45.15.79.65,1,1.53a10.68,10.68,0,0,0,.29,1C117.23,213.21,116.78,213.65,115.94,213.65Z"/><path class="cls-1" d="M134.15,198.74l-.34.3a62.17,62.17,0,0,0-1.43,8.29,69.27,69.27,0,0,0-.69,9.28,125.63,125.63,0,0,0,.69,15.06.66.66,0,0,1-.74.74c-.7,0-1.39-.59-2.08-1.68a5,5,0,0,1-1-2.66c0-.2,0-.74,0-1.73s-.05-1.48-.05-1.68a3.45,3.45,0,0,1,.44-1.83c-.2-2-.25-4.59-.25-7.8a70.88,70.88,0,0,1,3.21-20.28c.2-.65.45-1,.84-1a3.22,3.22,0,0,1,1.88,1,3,3,0,0,1,1.13,2A2.29,2.29,0,0,1,134.15,198.74Z"/><path class="cls-1" d="M150.49,217.65a48.35,48.35,0,0,0-1.68,10.81,3.37,3.37,0,0,1,1,2.27c0,.69-.35,1-.94,1-.79,0-1.48-.64-2.12-1.88a8.32,8.32,0,0,1-.74-3.8c0-1.28.64-5.28,2-12.09a9.93,9.93,0,0,1-.15-1.14,1.32,1.32,0,0,1,.74-1.13c1.83.1,2.77,1,2.77,2.56C151.13,215.28,150.83,216.37,150.49,217.65Zm1.92-19c-1.92-.35-2.86-1.39-2.86-3.11,0-.3-.05-.6-.05-.94a2.64,2.64,0,0,1,2.07-2.27c1.63.2,2.47,1.28,2.47,3.35C154,197.56,153.5,198.55,152.41,198.65Z"/><path class="cls-1" d="M184.2,196.82a10,10,0,0,0-7.9,4.84c-2.47,4-4.05,9.13-4.79,15.6,1.83-.4,4.69-1.09,8.59-2a15,15,0,0,1,3-.34,1.4,1.4,0,0,1,1.57,1.58,1.55,1.55,0,0,1-.83,1.43,3.1,3.1,0,0,1-1.73.59,2.44,2.44,0,0,1-.84-.15c-2,.35-5.38,1.09-10.12,2.17-1.09,9.58-2.47,16.1-4.25,19.55-.69,1.19-1.28,1.83-1.77,1.83a1.64,1.64,0,0,1-1.29-.69,2.22,2.22,0,0,1-.54-1.44,1.42,1.42,0,0,1,.3-1,4.31,4.31,0,0,1,.74-.74c1.43-1.38,2.71-7,3.9-16.79a19.44,19.44,0,0,1-3.51.65,1.4,1.4,0,0,1-1-.45,1.46,1.46,0,0,1-.4-1.08c0-1.09.45-1.68,1.43-1.68a12.31,12.31,0,0,0,2.17-.3c.25-.05.84-.2,1.73-.44,1.19-10.27,4-17.38,8.39-21.23a13.09,13.09,0,0,1,3.16-1.87,7.7,7.7,0,0,1,3.21-1c1.24,0,1.88.39,1.88,1.13A2.06,2.06,0,0,1,184.2,196.82Z"/><path class="cls-1" d="M206.46,232.06q-5.78,0-8.29-5.48a5.92,5.92,0,0,1-1.39.15,7.51,7.51,0,0,1-4.09-.93c-1.24-.7-1.83-1.44-1.83-2.23,0-1.08.49-1.62,1.48-1.62a5.47,5.47,0,0,1,1.48.88,4.52,4.52,0,0,0,2.52.79,5.93,5.93,0,0,0,.94-.05,12,12,0,0,1-.2-2.27,14.48,14.48,0,0,1,1.78-6.91c1.33-2.51,3-3.8,5-3.8a5.49,5.49,0,0,1,3.75,2A5,5,0,0,1,209,216a8.7,8.7,0,0,1-2.47,5.73,14.88,14.88,0,0,1-5.48,4,4.88,4.88,0,0,0,4.69,3.11,10.12,10.12,0,0,0,2.07-.25c.89-.1,1.43-.15,1.68-.15a1.3,1.3,0,0,1,1,.54,1.88,1.88,0,0,1,.44,1.14C211,231.37,209.42,232.06,206.46,232.06Zm-1.14-17.47a2.62,2.62,0,0,0-1.63-.69c-1,0-1.82.79-2.51,2.27a11,11,0,0,0-1,4.64,14.12,14.12,0,0,0,.15,2,12.12,12.12,0,0,0,4.1-2.86,5.2,5.2,0,0,0,1.72-3.7A2.3,2.3,0,0,0,205.32,214.59Z"/><path class="cls-2" d="M201.68,156.56l-31.42-1.9S172,156,172,159.55s-2.27,7-3.62,10.7c-1.55,4.22-.81,8.9-2.42,13.1-2.11,5.54-6.88,6.2-12.19,5.77-4.76-.39-7.94-3.66-11.42-7.24-2.29-2.36-3-7.69-3.84-10.72-.33-1.24-3.87-18.56-3.88-18.56-19.07,1.14-39.6,2-57.09-7-35.49-18.32-26.14-62-5.34-88.09C76.57,52,82.11,46.5,88.83,44c8-3,16,.46,24.32-.35,7.75-.77,13-7,19-11.61a9.1,9.1,0,0,0,3.53-6.84c.29-7-.9-15.9,5.47-20.67a12.92,12.92,0,0,1,12.31-1.61c7.88,3.19,10.42,12.9,11.92,21.27.9,5,1.79,10,2.58,15a40.32,40.32,0,0,0,3.47,6.27c.37.29,7.82,3,8.29,3,19.4.92,24.46-11.95,43.14-6.63,5.45,1.56,11.38,5.11,11.71,10.77.21,3.52-2,6.85-4.85,8.9-2.57,1.85-5.66,2.68-8.52,3.77,6.28-.1,15,1.57,15,9.49,0,11-17.68,15.75-17.68,15.75s17.13,2.77,17.13,13.54-18.79,18.79-18.79,18.79,18.79,4.7,18.79,17.13-16.3,14.1-16.3,14.1Z"/><path class="cls-3" d="M156.18,191.23c-.88,0-1.75,0-2.6-.12-5.5-.44-9.14-4.19-12.67-7.82-2.22-2.29-3.13-6.31-3.86-9.54-.17-.76-.33-1.46-.49-2.07-.24-.89-1.82-8.53-3.28-15.62-.1-.5-.2-1-.28-1.37-20.9,1.21-39.63,1.31-56.4-7.35-12.73-6.57-20.95-17-23.77-30.23-3.95-18.5,3-42.4,17.78-60.89C76.39,49,82.12,44.36,88.12,42.09c5.29-2,10.46-1.42,15.46-.87a45.05,45.05,0,0,0,9.38.4c5.37-.53,9.53-4.09,13.93-7.86,1.3-1.12,2.65-2.27,4-3.34a7.09,7.09,0,0,0,2.75-5.34c0-1.12,0-2.3.06-3.5,0-6.61.09-14.1,6.21-18.69A14.9,14.9,0,0,1,154.21,1c8.6,3.47,11.47,13.46,13.14,22.76.87,4.85,1.77,9.85,2.56,14.9a56,56,0,0,0,2.81,5.14c1.38.59,6.24,2.36,7.26,2.65,8.25.36,13.77-1.92,19.11-4.12,6.9-2.85,13.43-5.54,24.32-2.44,7.91,2.26,12.83,6.95,13.16,12.57.23,3.89-1.95,8-5.69,10.65a16.09,16.09,0,0,1-1.7,1.07,14,14,0,0,1,6.13,3.31,9.79,9.79,0,0,1,2.91,7.25c0,8-7.52,12.89-13.15,15.46,5.49,2,12.6,6.09,12.6,13.83,0,8.5-9.69,15.16-15.59,18.43,6,2.42,15.59,7.79,15.59,17.49,0,11.27-11.84,15.45-18.1,16.09l-17.81,2.5h-.2l-27.89-1.69a11,11,0,0,1,.31,2.68c0,2.94-1.22,5.63-2.4,8.23-.47,1-1,2.12-1.34,3.16a23.74,23.74,0,0,0-1.07,6,26.25,26.25,0,0,1-1.36,7.13C165.56,190,160.75,191.23,156.18,191.23ZM134.63,150.6c1.61,0,1.9,1.4,2.11,2.44l.46,2.22c.9,4.35,3,14.53,3.22,15.39.18.65.35,1.41.53,2.21.59,2.6,1.39,6.16,2.82,7.63,3.3,3.39,6.14,6.31,10.14,6.64,5.9.47,8.75-.78,10.17-4.49a23.5,23.5,0,0,0,1.11-6.09,26.76,26.76,0,0,1,1.29-7c.44-1.18,1-2.32,1.46-3.43,1.05-2.32,2-4.51,2-6.58,0-2.42-.95-3.31-1-3.34l-5.29-4,6.68.45,31.22,1.9,17.49-2.46c.66-.07,14.58-1.65,14.58-12.12,0-10.71-17.1-15.14-17.28-15.19l-5.74-1.45,5.44-2.33c4.89-2.09,17.58-9.21,17.58-17,0-8.94-15.3-11.54-15.45-11.56L209,91l9-2.41c.17,0,16.2-4.44,16.2-13.82a5.85,5.85,0,0,0-1.72-4.4c-2.07-2-6.17-3.17-11.27-3.09l-11.44.17,10.7-4.05,1.9-.68a24.49,24.49,0,0,0,6.16-2.83c2.06-1.48,4.2-4.14,4-7.17-.27-4.52-5.48-7.59-10.27-8.95-9.55-2.72-15.18-.4-21.7,2.29-5.51,2.27-11.76,4.85-21,4.41A62.18,62.18,0,0,1,170.2,47c-1-.75-4.07-6.65-4.21-7.54-.8-5.07-1.7-10.1-2.58-15-1.47-8.23-3.9-17-10.7-19.76a10.86,10.86,0,0,0-10.36,1.35c-4.53,3.4-4.57,9.56-4.61,15.52,0,1.24,0,2.46-.06,3.64a11,11,0,0,1-4.31,8.33c-1.3,1-2.61,2.13-3.88,3.22-4.68,4-9.51,8.14-16.14,8.8a49.24,49.24,0,0,1-10.21-.4c-4.74-.53-9.22-1-13.61.63-5.31,2-10.47,6.23-15.79,12.89-14,17.58-20.71,40.17-17,57.55,2.6,12.17,9.9,21.43,21.69,27.52,16.33,8.42,35.05,8.07,56.06,6.81ZM179.81,46.47h0Zm-9.88-7.66v0Z"/><path class="cls-4" d="M133.25,92.16c-2.63,15.44-10.9,28.52-25,26.88-12.61-1-25.18-9.47-26.12-23.24,2-14.14,12.71-27.15,25.15-23.6C121.71,69.39,131.58,82.84,133.25,92.16Z"/><path class="cls-3" d="M110.62,120.18a23.68,23.68,0,0,1-2.49-.14c-12.64-1-26-9.56-27-24.17v-.21C82.47,86.23,87.38,77.73,94,73.47a16.2,16.2,0,0,1,13.36-2.29,20.38,20.38,0,0,1,15.49,3.37A28.77,28.77,0,0,1,134.24,92l0,.18,0,.17C131.89,106.1,124.48,120.18,110.62,120.18ZM83.13,95.84c1,13.41,13.39,21.32,25.19,22.21,14.06,1.63,21.56-12.27,23.92-25.88a26.66,26.66,0,0,0-10.57-16,18.16,18.16,0,0,0-14.21-3l-.23,0-.23-.06a14.27,14.27,0,0,0-12,2C89.06,79,84.39,87.14,83.13,95.84Z"/><path class="cls-4" d="M133.25,92.16c-2.63,15.44-10.9,28.52-25,26.88-12.61-1-25.18-9.47-26.12-23.24,2-14.14,12.71-27.15,25.15-23.6C121.71,69.39,131.58,82.84,133.25,92.16Z"/><path class="cls-3" d="M110.62,120.18a23.68,23.68,0,0,1-2.49-.14c-12.64-1-26-9.56-27-24.17v-.21C82.47,86.23,87.38,77.73,94,73.47a16.2,16.2,0,0,1,13.36-2.29,20.38,20.38,0,0,1,15.49,3.37A28.77,28.77,0,0,1,134.24,92l0,.18,0,.17C131.89,106.1,124.48,120.18,110.62,120.18ZM83.13,95.84c1,13.41,13.39,21.32,25.19,22.21,14.06,1.63,21.56-12.27,23.92-25.88a26.66,26.66,0,0,0-10.57-16,18.16,18.16,0,0,0-14.21-3l-.23,0-.23-.06a14.27,14.27,0,0,0-12,2C89.06,79,84.39,87.14,83.13,95.84Z"/><path class="cls-1" d="M108.4,93.42c.5,5.24-4.87,9.37-8.89,9.33-5.24.42-8.61-3.62-8.29-9.69-1.37-5.27,3.28-7.84,8-7.8C105.22,84.21,108.09,89.07,108.4,93.42Z"/><path class="cls-5" d="M98.73,103.28a7.47,7.47,0,0,1-5.34-2.09c-1.89-1.84-2.84-4.7-2.67-8.08a6,6,0,0,1,.93-5.35c1.49-1.9,4.34-3,7.54-3a7.64,7.64,0,0,1,6.21,1.39,10.13,10.13,0,0,1,3.5,7.22,8.41,8.41,0,0,1-2.37,6.51,10.22,10.22,0,0,1-7,3.37Q99.12,103.28,98.73,103.28Zm.48-17.53c-2.95,0-5.5,1-6.77,2.63a5,5,0,0,0-.73,4.55v.15c-.17,3.12.68,5.75,2.37,7.39a6.65,6.65,0,0,0,5.38,1.78h0a9.11,9.11,0,0,0,6.28-3,7.48,7.48,0,0,0,2.11-5.75h0a9.07,9.07,0,0,0-3.11-6.51,6.69,6.69,0,0,0-5.51-1.19Z"/><path class="cls-1" d="M108.4,93.42c.5,5.24-4.87,9.37-8.89,9.33-5.24.42-8.61-3.62-8.29-9.69-1.37-5.27,3.28-7.84,8-7.8C105.22,84.21,108.09,89.07,108.4,93.42Z"/><path class="cls-5" d="M98.73,103.28a7.47,7.47,0,0,1-5.34-2.09c-1.89-1.84-2.84-4.7-2.67-8.08a6,6,0,0,1,.93-5.35c1.49-1.9,4.34-3,7.54-3a7.64,7.64,0,0,1,6.21,1.39,10.13,10.13,0,0,1,3.5,7.22,8.41,8.41,0,0,1-2.37,6.51,10.22,10.22,0,0,1-7,3.37Q99.12,103.28,98.73,103.28Zm.48-17.53c-2.95,0-5.5,1-6.77,2.63a5,5,0,0,0-.73,4.55v.15c-.17,3.12.68,5.75,2.37,7.39a6.65,6.65,0,0,0,5.38,1.78h0a9.11,9.11,0,0,0,6.28-3,7.48,7.48,0,0,0,2.11-5.75h0a9.07,9.07,0,0,0-3.11-6.51,6.69,6.69,0,0,0-5.51-1.19Z"/><path class="cls-2" d="M45.31,80.45c-3.1,10.1-5,14.83-20.64,15-8,3.87-17.55-2.67-12.46-15.52C5.77,72.42,20,62.06,26.73,61.79,37.42,60.24,44.68,67.53,45.31,80.45Z"/><path class="cls-2" d="M54.45,48.31c1.52,5.43-1.16,6.92-7.24,6.63-3.23-.45-8.08-2.55-6.15-7.77C42,43.72,43,41.5,47.79,41.33,51.64,41.3,56.52,43.62,54.45,48.31Z"/><path class="cls-2" d="M9.6,34.06c.2,3.09-.69,5.47-4.34,3.78C2.81,37.69.36,37.4,0,33.61c.32-2,3.53-4.24,6.19-5.9C8.74,27.92,10.45,30.49,9.6,34.06Z"/></g></g></svg>